<svg width="26" height="26" viewBox="0 0 26 26" fill="none" xmlns="http://www.w3.org/2000/svg">
<path d="M18.6867 1.22973C18.7579 1.1571 18.8435 1.09931 18.9382 1.05983C19.0329 1.02035 19.1348 1 19.2377 1C19.3407 1 19.4426 1.02035 19.5373 1.05983C19.632 1.09931 19.7175 1.1571 19.7888 1.22973L24.7615 6.09021C24.8368 6.15994 24.8968 6.24396 24.9378 6.33712C24.9788 6.43029 25 6.53064 25 6.63206C25 6.73348 24.9788 6.83384 24.9378 6.927C24.8968 7.02017 24.8368 7.10418 24.7615 7.17392L21.4419 10.4186L15.3605 4.47437L18.6867 1.22973ZM15.3671 4.47437L21.4486 10.3991L20.3398 11.4828L14.265 5.53862L15.3671 4.47437ZM20.3398 11.5023L8.38936 23.183L1 25L2.65315 16.8884L14.265 5.5516M2.65315 16.8949L8.38936 23.1765L2.65315 16.8949ZM14.9024 8.78326L5.97935 17.5049L14.9024 8.78326ZM16.8742 10.7106L7.95118 19.4387L16.8742 10.7106Z" fill="#FEFFFB"/>
<path d="M20.3398 11.5023L8.38936 23.183L1 25L2.65315 16.8884L14.265 5.5516M2.65315 16.8949L8.38936 23.1765M14.9024 8.78326L5.97935 17.5049M16.8742 10.7106L7.95118 19.4387M18.6867 1.22973C18.7579 1.1571 18.8435 1.09931 18.9382 1.05983C19.0329 1.02035 19.1348 1 19.2377 1C19.3407 1 19.4426 1.02035 19.5373 1.05983C19.632 1.09931 19.7175 1.1571 19.7888 1.22973L24.7615 6.09021C24.8368 6.15994 24.8968 6.24396 24.9378 6.33712C24.9788 6.43029 25 6.53064 25 6.63206C25 6.73348 24.9788 6.83384 24.9378 6.927C24.8968 7.02017 24.8368 7.10418 24.7615 7.17392L21.4419 10.4186L15.3605 4.47437L18.6867 1.22973ZM15.3671 4.47437L21.4486 10.3991L20.3398 11.4828L14.265 5.53862L15.3671 4.47437Z" stroke="#496217" stroke-linecap="round" stroke-linejoin="round"/>
<rect x="1.5" y="1.5" width="23" height="23" stroke="#496217"/>
</svg>
