<svg width="24" height="24" viewBox="0 0 24 24" fill="none" xmlns="http://www.w3.org/2000/svg">
<path d="M12.8569 4.80005L7.71405 10.2H11.1426V13.8L16.2855 8.40005H12.8569V4.80005Z" fill="#496217"/>
<path fill-rule="evenodd" clip-rule="evenodd" d="M23.9227 9.1638C23.6626 10.709 22.7753 12.1697 21.3659 13.3728C20.5413 14.0778 18.4456 16.092 17.9998 17.4H5.99975C5.55404 16.0908 3.45574 14.0766 2.63116 13.371C1.2224 12.1673 0.33597 10.7062 0.0768553 9.1608C-0.178607 7.61866 0.205862 6.05764 1.18429 4.6644C2.17192 3.26054 3.70712 2.08106 5.61232 1.2624C7.53407 0.435743 9.74591 -0.00128041 12.0015 2.81784e-06C14.2627 2.81784e-06 16.4775 0.438003 18.3907 1.2642C20.2954 2.08317 21.83 3.26286 22.817 4.6668C23.795 6.06034 24.1789 7.62158 23.9227 9.1638ZM16.7853 16.2H7.21348C6.84833 15.6102 6.36061 15.0192 5.90633 14.517C5.30854 13.857 4.65837 13.221 3.95888 12.612C2.75734 11.5858 2.00119 10.34 1.78001 9.0222C1.56227 7.7089 1.88961 6.3795 2.72287 5.193C3.56811 3.99248 4.88162 2.98399 6.51147 2.2842C8.16286 1.57408 10.0634 1.19875 12.0015 1.2C13.9472 1.2 15.8501 1.5774 17.4915 2.286C19.1208 2.98594 20.4337 3.99442 21.2784 5.1948C22.1113 6.3816 22.438 7.71122 22.2196 9.0246C21.9976 10.3421 21.2409 11.5875 20.039 12.6132C19.3392 13.2219 18.6893 13.8579 18.0924 14.5182C17.6381 15.0204 17.1513 15.6102 16.7861 16.2H16.7853Z" fill="#496217"/>
<path d="M5.99976 19.2C5.99976 19.0408 6.09006 18.8882 6.25081 18.7757C6.41155 18.6632 6.62957 18.6 6.8569 18.6H17.1427C17.37 18.6 17.588 18.6632 17.7488 18.7757C17.9095 18.8882 17.9998 19.0408 17.9998 19.2C17.9998 19.3591 17.9095 19.5117 17.7488 19.6242C17.588 19.7368 17.37 19.8 17.1427 19.8H6.8569C6.62957 19.8 6.41155 19.7368 6.25081 19.6242C6.09006 19.5117 5.99976 19.3591 5.99976 19.2Z" fill="#496217"/>
<path fill-rule="evenodd" clip-rule="evenodd" d="M5.99976 21H17.9998V22.8C17.9998 23.1183 17.8192 23.4235 17.4977 23.6485C17.1762 23.8736 16.7402 24 16.2855 24H7.71405C7.25939 24 6.82336 23.8736 6.50186 23.6485C6.18037 23.4235 5.99976 23.1183 5.99976 22.8V21ZM7.71405 22.2H16.2855V22.8H7.71405V22.2Z" fill="#496217"/>
<rect x="0.5" y="0.5" width="23" height="23" stroke="#496217"/>
</svg>
