<svg width="41" height="33" viewBox="0 0 41 33" fill="none" xmlns="http://www.w3.org/2000/svg">
<path d="M0 32.6761V27.5931C0 26.5947 0.259607 25.6568 0.778821 24.7794C1.29803 23.9019 2.01577 23.2363 2.93203 22.7825C4.48967 21.9958 6.24584 21.3302 8.20052 20.7856C10.1552 20.241 12.3084 19.9687 14.6602 19.9687C17.0119 19.9687 19.1651 20.241 21.1198 20.7856C23.0745 21.3302 24.8306 21.9958 26.3883 22.7825C27.3045 23.2363 28.0223 23.9019 28.5415 24.7794C29.0607 25.6568 29.3203 26.5947 29.3203 27.5931V32.6761H0ZM3.66504 29.0454H25.6553V27.5931C25.6553 27.2603 25.5716 26.9578 25.4042 26.6855C25.2356 26.4132 25.0139 26.2014 24.739 26.0501C23.6395 25.5055 22.2272 24.9609 20.5022 24.4163C18.776 23.8717 16.8286 23.5994 14.6602 23.5994C12.4917 23.5994 10.5449 23.8717 8.81991 24.4163C7.09368 24.9609 5.68081 25.5055 4.5813 26.0501C4.30642 26.2014 4.0853 26.4132 3.91793 26.6855C3.74933 26.9578 3.66504 27.2603 3.66504 27.5931V29.0454ZM14.6602 18.1534C12.6444 18.1534 10.9188 17.4424 9.48329 16.0204C8.04781 14.5983 7.33008 12.8889 7.33008 10.892H6.87195C6.59707 10.892 6.37595 10.8091 6.20858 10.6433C6.03998 10.4763 5.95569 10.2567 5.95569 9.98436C5.95569 9.71205 6.03998 9.4924 6.20858 9.32539C6.37595 9.15959 6.59707 9.07669 6.87195 9.07669H7.33008C7.33008 7.71518 7.66604 6.48983 8.33796 5.40063C9.00989 4.31143 9.8956 3.44914 10.9951 2.81377V4.53834C10.9951 4.81064 11.0794 5.02969 11.248 5.1955C11.4154 5.36251 11.6365 5.44601 11.9114 5.44601C12.1863 5.44601 12.408 5.36251 12.5766 5.1955C12.7439 5.02969 12.8276 4.81064 12.8276 4.53834V2.08764C13.1025 1.99687 13.3927 1.92849 13.6981 1.88251C14.0035 1.83773 14.3242 1.81534 14.6602 1.81534C14.9961 1.81534 15.3168 1.83773 15.6222 1.88251C15.9276 1.92849 16.2178 1.99687 16.4927 2.08764V4.53834C16.4927 4.81064 16.577 5.02969 16.7456 5.1955C16.9129 5.36251 17.1341 5.44601 17.4089 5.44601C17.6838 5.44601 17.9055 5.36251 18.0741 5.1955C18.2415 5.02969 18.3252 4.81064 18.3252 4.53834V2.81377C19.4247 3.44914 20.3104 4.31143 20.9823 5.40063C21.6543 6.48983 21.9902 7.71518 21.9902 9.07669H22.4484C22.7232 9.07669 22.945 9.15959 23.1136 9.32539C23.2809 9.4924 23.3646 9.71205 23.3646 9.98436C23.3646 10.2567 23.2809 10.4763 23.1136 10.6433C22.945 10.8091 22.7232 10.892 22.4484 10.892H21.9902C21.9902 12.8889 21.2725 14.5983 19.837 16.0204C18.4015 17.4424 16.6759 18.1534 14.6602 18.1534ZM14.6602 14.5227C15.668 14.5227 16.5312 14.1669 17.2495 13.4553C17.9666 12.7449 18.3252 11.8905 18.3252 10.892H10.9951C10.9951 11.8905 11.3543 12.7449 12.0726 13.4553C12.7898 14.1669 13.6523 14.5227 14.6602 14.5227ZM28.404 21.784L28.1292 20.4225C27.9459 20.362 27.7706 20.2937 27.6032 20.2174C27.4346 20.1424 27.274 20.0292 27.1213 19.8779L25.8385 20.3318L24.9223 18.698L25.9301 17.7903V16.7011L24.9223 15.7934L25.8385 14.1596L27.1213 14.6135C27.2435 14.4924 27.3962 14.3865 27.5794 14.2958C27.7627 14.205 27.9459 14.1294 28.1292 14.0689L28.404 12.7074H30.2366L30.5114 14.0689C30.6947 14.1294 30.878 14.205 31.0612 14.2958C31.2445 14.3865 31.3972 14.4924 31.5193 14.6135L32.8021 14.1596L33.7184 15.7934L32.7105 16.7011V17.7903L33.7184 18.698L32.8021 20.3318L31.5193 19.8779C31.3666 20.0292 31.2066 20.1424 31.0392 20.2174C30.8706 20.2937 30.6947 20.362 30.5114 20.4225L30.2366 21.784H28.404ZM29.3203 18.6072C29.6868 18.6072 30.0075 18.4711 30.2824 18.1988C30.5573 17.9265 30.6947 17.6088 30.6947 17.2457C30.6947 16.8826 30.5573 16.565 30.2824 16.2927C30.0075 16.0204 29.6868 15.8842 29.3203 15.8842C28.9538 15.8842 28.6331 16.0204 28.3582 16.2927C28.0834 16.565 27.9459 16.8826 27.9459 17.2457C27.9459 17.6088 28.0834 17.9265 28.3582 18.1988C28.6331 18.4711 28.9538 18.6072 29.3203 18.6072ZM32.6188 12.7074L32.2523 10.8013C31.9775 10.7105 31.7258 10.5967 31.4973 10.46C31.2677 10.3244 31.0612 10.1659 30.878 9.98436L28.9538 10.6197L27.671 8.44132L29.2287 7.07982C29.1676 6.92854 29.1371 6.80751 29.1371 6.71675V5.99061C29.1371 5.89985 29.1676 5.77882 29.2287 5.62755L27.671 4.26604L28.9538 2.08764L30.878 2.72301C31.0612 2.54147 31.2677 2.38233 31.4973 2.24557C31.7258 2.11003 31.9775 1.99687 32.2523 1.9061L32.6188 0H35.1844L35.5509 1.9061C35.8258 1.99687 36.078 2.11003 36.3077 2.24557C36.5362 2.38233 36.742 2.54147 36.9253 2.72301L38.8494 2.08764L40.1322 4.26604L38.5745 5.62755C38.6356 5.77882 38.6662 5.89985 38.6662 5.99061V6.71675C38.6662 6.80751 38.6356 6.92854 38.5745 7.07982L40.1322 8.44132L38.8494 10.6197L36.9253 9.98436C36.742 10.1659 36.5362 10.3244 36.3077 10.46C36.078 10.5967 35.8258 10.7105 35.5509 10.8013L35.1844 12.7074H32.6188ZM33.9016 8.62285C34.543 8.62285 35.0854 8.4032 35.5289 7.96388C35.9711 7.52578 36.1923 6.98905 36.1923 6.35368C36.1923 5.71831 35.9711 5.18097 35.5289 4.74166C35.0854 4.30356 34.543 4.08451 33.9016 4.08451C33.2602 4.08451 32.7184 4.30356 32.2762 4.74166C31.8327 5.18097 31.611 5.71831 31.611 6.35368C31.611 6.98905 31.8327 7.52578 32.2762 7.96388C32.7184 8.4032 33.2602 8.62285 33.9016 8.62285ZM3.66504 29.0454H25.6553H3.66504V29.0454Z" fill="#496217"/>
<rect x="0.5" y="0.5" width="39.1322" height="31.6761" stroke="#496217"/>
</svg>
