<svg width="41" height="33" viewBox="0 0 41 33" fill="none" xmlns="http://www.w3.org/2000/svg">
<g clip-path="url(#clip0_266_58)">
<path d="M0 27.23H40.1322M0 31.5868H40.1322M6.6887 8.71353V5.44592H10.7019M29.4303 5.44592H33.4435V8.71353M6.6887 15.2487V18.5163H10.7019M29.4303 18.5163H33.4435V15.2487M20.0661 16.3379C18.6469 16.3379 17.2859 15.8789 16.2824 15.0619C15.2789 14.2448 14.7151 13.1366 14.7151 11.9811C14.7151 10.8256 15.2789 9.71746 16.2824 8.9004C17.2859 8.08334 18.6469 7.62433 20.0661 7.62433C21.4853 7.62433 22.8463 8.08334 23.8498 8.9004C24.8533 9.71746 25.417 10.8256 25.417 11.9811C25.417 13.1366 24.8533 14.2448 23.8498 15.0619C22.8463 15.8789 21.4853 16.3379 20.0661 16.3379ZM4.01322 1.08911H36.119C36.8285 1.08911 37.5091 1.31862 38.0108 1.72715C38.5126 2.13568 38.7944 2.68977 38.7944 3.26752V20.6948C38.7944 21.2725 38.5126 21.8266 38.0108 22.2351C37.5091 22.6436 36.8285 22.8732 36.119 22.8732H4.01322C3.30364 22.8732 2.62312 22.6436 2.12137 22.2351C1.61962 21.8266 1.33774 21.2725 1.33774 20.6948V3.26752C1.33774 2.68977 1.61962 2.13568 2.12137 1.72715C2.62312 1.31862 3.30364 1.08911 4.01322 1.08911V1.08911Z" stroke="#496217"/>
</g>
<rect x="0.5" y="0.5" width="39.1322" height="31.6761" stroke="#496217"/>
<defs>
<clipPath id="clip0_266_58">
<rect width="40.1322" height="32.6761" fill="white"/>
</clipPath>
</defs>
</svg>
