<svg width="24" height="24" viewBox="0 0 24 24" fill="none" xmlns="http://www.w3.org/2000/svg">
<path d="M23.8795 3.63082C23.7585 3.08726 23.751 3.01682 22.5295 3.01682H21.3015L21.056 2.34286C20.732 1.36514 19.643 0.433386 18.558 0.161604C17.93 0.0047293 15.693 -0.0227487 10.2335 0.0152209C3.36996 0.0631825 2.70846 0.102151 2.02946 0.407407C0.509455 1.08986 -0.328047 2.81048 0.120954 4.32577C0.434454 5.38192 1.09346 6.16379 2.02946 6.58396C2.70796 6.88871 3.36946 6.92069 10.233 6.96815C15.692 7.00662 17.9295 6.96315 18.557 6.80578C19.6455 6.5335 20.7315 5.56827 21.0585 4.58156C21.305 3.83966 21.316 3.83216 22.121 3.88512L22.9335 3.93858L22.9875 6.49952L23.041 9.05997L20.6595 9.62202C19.3515 9.93127 17.713 10.3265 17.0195 10.5008C15.7768 10.8084 14.5328 11.1107 13.2875 11.4076L10.8155 11.9986L10.815 13.2956C10.8145 14.5845 10.9275 14.5965 10.157 15.24L9.49997 15.887V24H13V15.887L12.2845 15.2315C11.5215 14.594 11.5355 14.5476 11.5935 13.5669L11.669 12.5587L12.551 12.3393C13.0315 12.2179 14.562 11.8462 15.9485 11.511C17.335 11.1768 19.7155 10.6027 21.236 10.235L24 9.56756V6.9057C24 5.44287 23.9455 3.93258 23.8795 3.63082ZM11.8875 21.8197C11.8875 22.2404 11.808 22.3273 11.38 22.3718C10.841 22.4268 10.608 22.16 10.723 21.6204C10.768 21.4101 10.9535 21.3191 11.3375 21.3191C11.8255 21.3196 11.8875 21.3766 11.8875 21.8197Z" fill="#496217"/>
<rect x="0.5" y="0.5" width="23" height="23" stroke="#496217"/>
</svg>
