<svg width="43" height="30" viewBox="0 0 43 30" fill="none" xmlns="http://www.w3.org/2000/svg">
<path d="M37.7878 1H4.34435C2.49732 1 1 2.03503 1 3.31181V26.43C1 27.7067 2.49732 28.7418 4.34435 28.7418H37.7878C39.6349 28.7418 41.1322 27.7067 41.1322 26.43V3.31181C41.1322 2.03503 39.6349 1 37.7878 1Z" fill="white" stroke="#496217" stroke-width="2" stroke-linejoin="round"/>
<path d="M25.5252 1L1 17.9533ZM41.1322 11.7885L16.607 28.7418ZM38.9026 2.54121L3.22957 27.2006ZM7.6887 13.3297L15.4922 18.7239ZM26.64 11.0179L34.4435 16.4121Z" fill="#496217"/>
<path d="M25.5252 1L1 17.9533M41.1322 11.7885L16.607 28.7418M38.9026 2.54121L3.22957 27.2006M7.6887 13.3297L15.4922 18.7239M26.64 11.0179L34.4435 16.4121" stroke="#496217" stroke-width="2" stroke-linecap="round" stroke-linejoin="round"/>
</svg>
