<svg width="41" height="33" viewBox="0 0 41 33" fill="none" xmlns="http://www.w3.org/2000/svg">
<path d="M1.04428 8.79395L1.04426 8.79394C0.66463 8.48484 0.500427 8.10466 0.500495 7.7503C0.500562 7.39586 0.664985 7.01553 1.04441 6.70635L8.07591 0.981252C8.86322 0.340221 10.1734 0.340221 10.9607 0.981252L13.1214 2.74098L8.76352 6.28917C8.76337 6.2893 8.76322 6.28942 8.76306 6.28954C8.53561 6.47435 8.39636 6.74161 8.39636 7.03487C8.39636 7.32824 8.53569 7.59555 8.7629 7.78055L9.6412 8.49566C9.74843 8.58314 9.87061 8.64846 9.9988 8.69175C10.127 8.73507 10.262 8.7566 10.3966 8.7566C10.5312 8.7566 10.6661 8.73507 10.7944 8.69175C10.9226 8.64846 11.0448 8.58315 11.152 8.49566L15.6705 4.81664L18.3368 6.98754L8.58013 14.9303L1.04428 8.79395ZM38.7134 7.73326L38.7134 7.7333L35.422 10.4138L27.3411 3.8343L30.4719 1.28575C31.7594 0.238043 33.8801 0.23815 35.1667 1.28567L38.7133 4.17341C38.7134 4.17343 38.7134 4.17346 38.7134 4.17349C39.3424 4.6859 39.6316 5.3326 39.6317 5.95344C39.6318 6.57426 39.3427 7.2209 38.7134 7.73326ZM32.8563 12.5028L10.167 30.9773L1.88223 32.16L1.88202 32.1601C1.44625 32.2225 1.05619 32.0963 0.804161 31.8913C0.555028 31.6886 0.462198 31.4357 0.514363 31.1925L1.94794 24.5076L24.7754 5.92387L32.8563 12.5028ZM21.7932 25.6879L31.5499 17.7451L34.2178 19.9173L29.8594 23.466C29.6321 23.651 29.4935 23.9184 29.4935 24.2112C29.4935 24.5039 29.632 24.7711 29.8588 24.9564L29.8594 24.9569L30.7375 25.6718C31.164 26.0202 31.8216 26.0196 32.2481 25.6723L36.767 21.9929L39.0881 23.8828C39.4678 24.192 39.6322 24.5722 39.6322 24.9265C39.6322 25.2808 39.4678 25.6611 39.0881 25.9702L32.0565 31.6948L32.0565 31.6948C31.2692 32.3359 29.9589 32.3359 29.1716 31.6948L29.1716 31.6948L21.7932 25.6879Z" fill="white" stroke="#496217"/>
<rect x="0.5" y="0.5" width="39.1322" height="31.6761" stroke="#496217"/>
</svg>
