<svg width="24" height="24" viewBox="0 0 24 24" fill="none" xmlns="http://www.w3.org/2000/svg">
<path fill-rule="evenodd" clip-rule="evenodd" d="M4 6V3H3V21H4V11H5.5V12H12.5V10.3335H14C14.2652 10.3335 14.5196 10.4389 14.7071 10.6264C14.8946 10.8139 15 11.0683 15 11.3335V11.5H14V15.5H21V11.5H20V11C20 8.2385 17.7615 6 15 6H12.5V5H9.5V4H13C13.1326 4 13.2598 3.94732 13.3536 3.85355C13.4473 3.75979 13.5 3.63261 13.5 3.5C13.5 3.36739 13.4473 3.24021 13.3536 3.14645C13.2598 3.05268 13.1326 3 13 3H5C4.86739 3 4.74021 3.05268 4.64645 3.14645C4.55268 3.24021 4.5 3.36739 4.5 3.5C4.5 3.63261 4.55268 3.75979 4.64645 3.85355C4.74021 3.94732 4.86739 4 5 4H8.5V5H5.5V6H4ZM19 11C19 9.93913 18.5786 8.92172 17.8284 8.17157C17.0783 7.42143 16.0609 7 15 7H12.5V9.3335H14C14.5304 9.3335 15.0391 9.54421 15.4142 9.91929C15.7893 10.2944 16 10.8031 16 11.3335V11.5H19V11ZM20 12.5H15V14.5H20V12.5ZM11.5 6H6.5V11H11.5V6ZM5.5 10H4V7H5.5V10Z" fill="#496217"/>
<path fill-rule="evenodd" clip-rule="evenodd" d="M17.75 21C18.7165 21 19.5 20.186 19.5 19.182C19.5 17.591 17.75 16 17.75 16C17.75 16 16 17.591 16 19.182C16 20.186 16.7835 21 17.75 21ZM17.75 20C18.1285 20 18.5 19.67 18.5 19.182C18.5 18.716 18.224 18.1385 17.8185 17.5855C17.796 17.5548 17.7731 17.5243 17.75 17.494C17.727 17.524 17.704 17.5545 17.6815 17.5855C17.2765 18.138 17 18.7155 17 19.182C17 19.67 17.3715 20 17.75 20Z" fill="#496217"/>
<rect x="0.5" y="0.5" width="23" height="23" stroke="#496217"/>
</svg>
