<svg width="26" height="26" viewBox="0 0 26 26" fill="none" xmlns="http://www.w3.org/2000/svg">
<path d="M23 1H3C1.89543 1 1 1.89543 1 3V23C1 24.1046 1.89543 25 3 25H23C24.1046 25 25 24.1046 25 23V3C25 1.89543 24.1046 1 23 1Z" fill="white" stroke="#496217" stroke-width="2" stroke-linejoin="round"/>
<path d="M15.6667 1L1 15.6667ZM25 10.3333L10.3333 25ZM23.6667 2.33333L2.33333 23.6667ZM5 11.6667L9.66667 16.3333ZM16.3333 9.66667L21 14.3333Z" fill="#496217"/>
<path d="M15.6667 1L1 15.6667M25 10.3333L10.3333 25M23.6667 2.33333L2.33333 23.6667M5 11.6667L9.66667 16.3333M16.3333 9.66667L21 14.3333" stroke="#496217" stroke-width="2" stroke-linecap="round" stroke-linejoin="round"/>
</svg>
