<svg width="41" height="33" viewBox="0 0 41 33" fill="none" xmlns="http://www.w3.org/2000/svg">
<rect x="0.5" y="0.5" width="39.1322" height="31.6761" fill="white"/>
<path d="M25.2247 9.36724C25.572 9.5991 25.9731 9.77163 26.404 9.87456C26.835 9.97748 27.2869 10.0087 27.733 9.9663H28.0507C28.7762 9.95581 29.4684 9.71648 29.9815 9.29871C30.4946 8.88094 30.7886 8.31734 30.8014 7.72662C30.7907 7.13472 30.4977 6.5694 29.9844 6.15018C29.4711 5.73096 28.7777 5.49068 28.0507 5.48014H25.2247V3.06348H30.8433" stroke="#496217" stroke-linecap="round" stroke-linejoin="round"/>
<path d="M20.2249 9.96614C21.7857 9.96614 23.0509 8.93597 23.0509 7.6652C23.0509 6.39442 21.7857 5.36426 20.2249 5.36426C18.6642 5.36426 17.399 6.39442 17.399 7.6652C17.399 8.93597 18.6642 9.96614 20.2249 9.96614Z" stroke="#496217" stroke-linecap="round" stroke-linejoin="round"/>
<path d="M22.7332 3.91422C22.4731 3.62254 22.1245 3.3908 21.7215 3.24165C21.3185 3.0925 20.8749 3.03104 20.434 3.06329H20.2249C19.8532 3.06148 19.4847 3.11976 19.1409 3.23475C18.797 3.34975 18.4846 3.51916 18.2217 3.73319C17.9589 3.94721 17.7508 4.20158 17.6096 4.48156C17.4683 4.76154 17.3967 5.06156 17.399 5.36423V7.66517M13.1433 9.96611C13.4196 9.967 13.6934 9.92347 13.9489 9.838C14.2045 9.75253 14.4369 9.62681 14.6326 9.46806C14.8284 9.3093 14.9837 9.12063 15.0897 8.91288C15.1957 8.70513 15.2502 8.48238 15.2502 8.25742V8.25742C15.2502 8.03246 15.1957 7.80971 15.0897 7.60196C14.9837 7.39421 14.8284 7.20554 14.6326 7.04678C14.4369 6.88803 14.2045 6.76231 13.9489 6.67684C13.6934 6.59137 13.4196 6.54784 13.1433 6.54873V6.54873C13.7006 6.54874 14.2353 6.36893 14.6302 6.04869C15.0251 5.72844 15.248 5.29384 15.2502 4.84005V4.84005C15.2502 4.38507 15.0282 3.94873 14.6331 3.62701C14.238 3.30529 13.7021 3.12455 13.1433 3.12455M9.68188 9.39427C10.4259 9.85573 11.3625 10.0611 12.2905 9.96611H13.1266M9.68188 3.69638C10.4259 3.23493 11.3625 3.0296 12.2905 3.12455H13.1266" stroke="#496217" stroke-linecap="round" stroke-linejoin="round"/>
<path d="M20.0661 29.6128C26.0181 29.6128 30.8432 25.6841 30.8432 20.8379C30.8432 15.9916 26.0181 12.063 20.0661 12.063C14.114 12.063 9.28893 15.9916 9.28893 20.8379C9.28893 25.6841 14.114 29.6128 20.0661 29.6128Z" stroke="#496217" stroke-linecap="round" stroke-linejoin="round"/>
<path d="M20.0661 15.106V20.8379L25.6177 23.806" stroke="#496217" stroke-linecap="round" stroke-linejoin="round"/>
<rect x="0.5" y="0.5" width="39.1322" height="31.6761" stroke="#496217"/>
</svg>
