<svg width="41" height="33" viewBox="0 0 41 33" fill="none" xmlns="http://www.w3.org/2000/svg">
<rect x="0.5" y="0.5" width="39.1322" height="31.6761" fill="#FEFFFB"/>
<path d="M26.7548 12.2534C26.7548 19.5102 13.3774 19.5102 13.3774 12.2534H16.7218C16.7218 15.8886 23.4105 15.8886 23.4105 12.2534M33.4435 24.5069V28.5915H6.68872V24.5069C6.68872 20.8717 15.6014 19.0609 20.0661 19.0609C24.5308 19.0609 33.4435 20.8717 33.4435 24.5069ZM30.2664 24.5069C30.2664 23.6356 25.0325 21.6478 20.0661 21.6478C15.0998 21.6478 9.86585 23.6356 9.86585 24.5069V26.0046H30.2664M20.9022 2.7229C21.3704 2.7229 21.7383 3.02243 21.7383 3.40365V7.48816H23.4105V4.0844C24.5939 4.53033 25.5854 5.25556 26.2563 6.16599C26.9272 7.07641 27.2465 8.13 27.1729 9.19004C27.1729 9.19004 28.3434 9.38065 28.427 10.8919H11.7052C11.7052 9.38065 12.9594 9.19004 12.9594 9.19004C12.8857 8.13 13.2051 7.07641 13.876 6.16599C14.5469 5.25556 15.5384 4.53033 16.7218 4.0844V7.48816H18.3939V3.40365C18.3939 3.02243 18.7618 2.7229 19.23 2.7229" fill="#496217"/>
<rect x="0.5" y="0.5" width="39.1322" height="31.6761" stroke="#496217"/>
</svg>
